#!OML:ASF H:\Pregnant\Project 1\Capture day 1\Session 1\femalepreg.ASF
:FULLY-SPECIFIED
:DEGREES
470
root -3.8297 16.1603 -24.1588 -162.345 53.5015 -185.726
lowerback -9.87764 -2.94672 -12.6808
upperback -4.56335 -2.33194 -2.09919
thorax 1.14116 -0.856176 4.63778
lowerneck -17.226 -9.85907 -4.97212
upperneck 28.7445 -14.9165 9.17899
head 13.7642 -5.55096 1.9106
rclavicle -4.21423e-014 6.36111e-015
rhumerus -32.9749 -0.369038 -81.6044
rradius 37.7328
rwrist -8.07554
rhand -12.1024 -9.14412
rfingers 7.12502
rthumb 13.9583 -38.6556
lclavicle -4.21423e-014 6.36111e-015
lhumerus -21.2087 -3.49273 73.772
lradius 38.0965
lwrist 46.7987
lhand -25.049 -5.78811
lfingers 7.12502
lthumb 1.46429 24.1866
rfemur -58.8648 7.17681 19.8369
rtibia 52.5443
rfoot -8.74012 -5.88044
rtoes -7.14692
lfemur -32.4671 -7.15344 -23.9454
ltibia 28.7006
lfoot -14.8963 -1.05625
ltoes -9.8713
471
root -3.75124 16.1634 -24.2163 -162.585 53.7721 -186.08
lowerback -9.9758 -2.99126 -12.8859
upperback -4.5738 -2.35171 -2.10909
thorax 1.19265 -0.863801 4.73469
lowerneck -17.1636 -9.85637 -5.12692
upperneck 28.7658 -14.8941 9.26339
head 13.7813 -5.54788 1.97532
rclavicle 7.27552e-014 3.18055e-014
rhumerus -33.0005 -0.0915559 -81.8718
rradius 38.1469
rwrist -8.17638
rhand -12.0697 -9.19471
rfingers 7.12502
rthumb 13.9899 -38.704
lclavicle 7.27552e-014 3.18055e-014
lhumerus -21.0943 -3.58493 73.8864
lradius 38.2189
lwrist 46.745
lhand -24.8799 -5.85882
lfingers 7.12502
lthumb 1.62759 24.1147
rfemur -59.0625 7.29976 19.5043
rtibia 50.9114
rfoot -8.81961 -6.13718
rtoes -7.15794
lfemur -31.7251 -6.92587 -24.2815
ltibia 28.0663
lfoot -14.9391 -1.09276
ltoes -10.4287
472
root -3.67184 16.1671 -24.273 -162.835 54.0354 -186.443
lowerback -10.0791 -3.02812 -13.0629
upperback -4.58591 -2.36167 -2.13488
thorax 1.24223 -0.866565 4.80034
lowerneck -17.0839 -9.85469 -5.31952
upperneck 28.7784 -14.8728 9.38508
head 13.7986 -5.54524 2.06124
rclavicle -6.36111e-015 1.43125e-014
rhumerus -33.0569 0.197564 -82.1588
rradius 38.5575
rwrist -8.31435
rhand -12.072 -9.27224
rfingers 7.12502
rthumb 13.9876 -38.7817
lclavicle -6.36111e-015 1.43125e-014
lhumerus -20.987 -3.74096 73.9968
lradius 38.2943
lwrist 46.6426
lhand -24.723 -5.96557
lfingers 7.12502
lthumb 1.7791 24.0068
rfemur -59.2258 7.41422 19.1644
rtibia 49.2689
rfoot -8.88888 -6.36913
rtoes -7.1386
lfemur -30.9478 -6.69085 -24.615
ltibia 27.3671
lfoot -14.9707 -1.1544
ltoes -10.8293
473
root -3.59149 16.1712 -24.329 -163.088 54.2837 -186.803
lowerback -10.1748 -3.06456 -13.2343
upperback -4.60416 -2.37358 -2.14974
thorax 1.28165 -0.869629 4.8745
lowerneck -16.9941 -9.85418 -5.55057
upperneck 28.7869 -14.8457 9.51971
head 13.8162 -5.54333 2.15996
rclavicle -6.20208e-014 -7.07673e-014
rhumerus -33.1197 0.489871 -82.4387
rradius 38.9259
rwrist -8.45487
rhand -12.0947 -9.35565
rfingers 7.12502
rthumb 13.9657 -38.8666
lclavicle -6.20208e-014 -7.07673e-014
lhumerus -20.9052 -3.91769 74.1316
lradius 38.3273
lwrist 46.4887
lhand -24.5839 -6.09737
lfingers 7.12502
lthumb 1.9134 23.8738
rfemur -59.3545 7.52362 18.8187
rtibia 47.6308
rfoot -8.97076 -6.60648
rtoes -7.02537
lfemur -30.1361 -6.45429 -24.9395
ltibia 26.6088
lfoot -14.9809 -1.23629
ltoes -11.165
474
root -3.51022 16.1755 -24.3845 -163.34 54.5108 -187.154
lowerback -10.2643 -3.09311 -13.367
upperback -4.62519 -2.37921 -2.17525
thorax 1.31214 -0.869393 4.91708
lowerneck -16.9141 -9.86482 -5.75399
upperneck 28.8041 -14.8361 9.62772
head 13.836 -5.5488 2.24032
rclavicle -2.16675e-014 -2.78299e-014
rhumerus -33.1845 0.72972 -82.7205
rradius 39.2309
rwrist -8.53719
rhand -12.0784 -9.38276
rfingers 7.12502
rthumb 13.9815 -38.8926
lclavicle -2.16675e-014 -2.78299e-014
lhumerus -20.8375 -4.13643 74.2666
lradius 38.3223
lwrist 46.2839
lhand -24.4572 -6.22198
lfingers 7.12502
lthumb 2.03583 23.7481
rfemur -59.4503 7.63409 18.4639
rtibia 46.0142
rfoot -9.07792 -6.88437
rtoes -6.7727
lfemur -29.2925 -6.22275 -25.2514
ltibia 25.7988
lfoot -14.9669 -1.33245
ltoes -11.6362
475
root -3.42801 16.1798 -24.4399 -163.596 54.7186 -187.499
lowerback -10.3506 -3.11792 -13.4657
upperback -4.64664 -2.38328 -2.20848
thorax 1.33895 -0.868586 4.93305
lowerneck -16.8416 -9.88046 -5.89587
upperneck 28.8154 -14.8392 9.69406
head 13.8458 -5.55888 2.29169
rclavicle 1.47101e-014 -1.98785e-014
rhumerus -33.2258 0.891502 -82.9973
rradius 39.4385
rwrist -8.51318
rhand -11.9864 -9.31762
rfingers 7.12502
rthumb 14.0702 -38.8213
lclavicle 1.47101e-014 -1.98785e-014
lhumerus -20.7885 -4.38748 74.3993
lradius 38.2859
lwrist 46.0455
lhand -24.3466 -6.33889
lfingers 7.12502
lthumb 2.14261 23.6301
rfemur -59.5184 7.76998 18.0783
rtibia 44.4336
rfoot -9.20506 -7.24061
rtoes -6.40401
lfemur -28.4173 -6.00355 -25.5518
ltibia 24.942
lfoot -14.9241 -1.43502
ltoes -12.1649
476
root -3.34456 16.1839 -24.495 -163.849 54.9008 -187.831
lowerback -10.427 -3.15266 -13.5586
upperback -4.67307 -2.40426 -2.22265
thorax 1.35859 -0.875812 4.96419
lowerneck -16.7789 -9.89299 -5.9783
upperneck 28.8302 -14.8354 9.6945
head 13.8458 -5.56823 2.30855
rclavicle 7.99114e-014 7.95139e-015
rhumerus -33.2439 1.02451 -83.2508
rradius 39.5482
rwrist -8.38381
rhand -11.8005 -9.14074
rfingers 7.12502
rthumb 14.2493 -38.6319
lclavicle 7.99114e-014 7.95139e-015
lhumerus -20.7806 -4.62891 74.549
lradius 38.2222
lwrist 45.7757
lhand -24.2516 -6.44985
lfingers 7.12502
lthumb 2.23435 23.5182
rfemur -59.5632 7.9412 17.6559
rtibia 42.9013
rfoot -9.35077 -7.71183
rtoes -5.84914
lfemur -27.5128 -5.80409 -25.8345
ltibia 24.0431
lfoot -14.8621 -1.53619
ltoes -12.84
477
root -3.25999 16.1876 -24.55 -164.1 55.0609 -188.151
lowerback -10.5004 -3.18677 -13.6221
upperback -4.70071 -2.4279 -2.23834
thorax 1.37495 -0.884535 4.97722
lowerneck -16.7189 -9.90839 -5.97052
upperneck 28.8308 -14.8394 9.62345
head 13.8248 -5.58183 2.28095
rclavicle 1.98785e-015 -1.27222e-014
rhumerus -33.2689 1.16637 -83.5149
rradius 39.6225
rwrist -8.25637
rhand -11.5901 -9.00155
rfingers 7.12502
rthumb 14.452 -38.4783
lclavicle 1.98785e-015 -1.27222e-014
lhumerus -20.7981 -4.88853 74.7001
lradius 38.1332
lwrist 45.4829
lhand -24.1699 -6.54034
lfingers 7.12502
lthumb 2.31325 23.4269
rfemur -59.5915 8.16755 17.1803
rtibia 41.4274
rfoot -9.43984 -8.33197
rtoes -5.47484
lfemur -26.5812 -5.62673 -26.0977
ltibia 23.104
lfoot -14.7618 -1.64445
ltoes -13.4069
478
root -3.17406 16.1908 -24.6046 -164.343 55.2151 -188.459
lowerback -10.5764 -3.21819 -13.6649
upperback -4.73227 -2.44983 -2.25386
thorax 1.38766 -0.892229 4.97923
lowerneck -16.649 -9.92099 -5.9615
upperneck 28.8227 -14.8403 9.55709
head 13.798 -5.59405 2.25596
rclavicle 4.45278e-014 3.33958e-014
rhumerus -33.2881 1.28319 -83.7764
rradius 39.6335
rwrist -8.09786
rhand -11.3443 -8.84948
rfingers 7.12502
rthumb 14.6888 -38.3091
lclavicle 4.45278e-014 3.33958e-014
lhumerus -20.8472 -5.1541 74.8533
lradius 38.0229
lwrist 45.1718
lhand -24.0994 -6.62731
lfingers 7.12502
lthumb 2.38137 23.3391
rfemur -59.6167 8.47002 16.6445
rtibia 40.0223
rfoot -9.50459 -9.12618
rtoes -5.07073
lfemur -25.6249 -5.45092 -26.3438
ltibia 22.1251
lfoot -14.6255 -1.76427
ltoes -13.9079
479
root -3.0868 16.1939 -24.6592 -164.581 55.3538 -188.756
lowerback -10.6519 -3.24944 -13.697
upperback -4.76978 -2.4738 -2.25744
thorax 1.39427 -0.900499 4.9879
lowerneck -16.5688 -9.93692 -5.96511
upperneck 28.8097 -14.8395 9.48278
head 13.7671 -5.60879 2.23058
rclavicle 1.12711e-013 -3.26007e-014
rhumerus -33.3401 1.47095 -84.034
rradius 39.6448
rwrist -8.04694
rhand -11.1424 -8.79372
rfingers 7.12502
rthumb 14.8833 -38.2391
lclavicle 1.12711e-013 -3.26007e-014
lhumerus -20.9341 -5.40862 75.0301
lradius 37.8941
lwrist 44.8392
lhand -24.0356 -6.70778
lfingers 7.12502
lthumb 2.44294 23.258
rfemur -59.6397 8.80543 16.0745
rtibia 38.6977
rfoot -9.56141 -10.0818
rtoes -4.6611
lfemur -24.6445 -5.29958 -26.5686
ltibia 21.1071
lfoot -14.4375 -1.89162
ltoes -14.2266
480
root -2.99811 16.1965 -24.7142 -164.819 55.4821 -189.05
lowerback -10.7198 -3.28873 -13.7247
upperback -4.82136 -2.51163 -2.24723
thorax 1.38464 -0.913912 5.00729
lowerneck -16.4687 -9.9475 -5.96866
upperneck 28.7917 -14.8262 9.39442
head 13.7269 -5.62098 2.20301
rclavicle -3.67752e-014 1.35174e-014
rhumerus -33.4418 1.75593 -84.2967
rradius 39.6663
rwrist -8.09634
rhand -10.9796 -8.86667
rfingers 7.12502
rthumb 15.0401 -38.3004
lclavicle -3.67752e-014 1.35174e-014
lhumerus -21.0848 -5.63014 75.221
lradius 37.755
lwrist 44.4932
lhand -23.9682 -6.78359
lfingers 7.12502
lthumb 2.50809 23.1814
rfemur -59.664 9.16489 15.4768
rtibia 37.4671
rfoot -9.63803 -11.187
rtoes -4.16704
lfemur -23.6365 -5.16979 -26.7802
ltibia 20.0494
lfoot -14.2094 -2.01801
ltoes -14.4958
481
root -2.908 16.1985 -24.7695 -165.056 55.6002 -189.344
lowerback -10.79 -3.33409 -13.7414
upperback -4.88373 -2.55897 -2.22949
thorax 1.36641 -0.930927 5.02748
lowerneck -16.3564 -9.95459 -5.96818
upperneck 28.7708 -14.8041 9.29138
head 13.6801 -5.63156 2.17132
rclavicle 1.39149e-015 5.24792e-014
rhumerus -33.5622 2.07438 -84.5595
rradius 39.6539
rwrist -8.17186
rhand -10.8173 -8.96821
rfingers 7.12502
rthumb 15.1965 -38.3901
lclavicle 1.39149e-015 5.24792e-014
lhumerus -21.29 -5.83077 75.4199
lradius 37.6064
lwrist 44.1364
lhand -23.883 -6.84254
lfingers 7.12502
lthumb 2.59038 23.1215
rfemur -59.6992 9.54738 14.8524
rtibia 36.3441
rfoot -9.77141 -12.4398
rtoes -3.49605
lfemur -22.6026 -5.06212 -26.9812
ltibia 18.9477
lfoot -13.9415 -2.14549
ltoes -14.737
482
root -2.81637 16.1999 -24.8253 -165.285 55.7041 -189.629
lowerback -10.8515 -3.38843 -13.7647
upperback -4.96488 -2.62165 -2.1828
thorax 1.32754 -0.953232 5.08049
lowerneck -16.227 -9.95949 -5.98516
upperneck 28.7539 -14.7647 9.15796
head 13.628 -5.64122 2.13473
rclavicle 6.55989e-015 -4.05521e-014
rhumerus -33.7116 2.43605 -84.7851
rradius 39.6018
rwrist -8.22902
rhand -10.6004 -9.06134
rfingers 7.12502
rthumb 15.4054 -38.4673
lclavicle 6.55989e-015 -4.05521e-014
lhumerus -21.567 -5.99482 75.6581
lradius 37.4531
lwrist 43.7816
lhand -23.7851 -6.89332
lfingers 7.12502
lthumb 2.68494 23.0695
rfemur -59.7464 9.93962 14.2217
rtibia 35.3406
rfoot -9.98399 -13.8224
rtoes -2.64959
lfemur -21.5417 -4.98011 -27.1666
ltibia 17.7993
lfoot -13.6328 -2.26781
ltoes -14.9885
483
root -2.72313 16.2004 -24.8815 -165.517 55.8098 -189.914
lowerback -10.9487 -3.43624 -13.7627
upperback -5.02823 -2.67052 -2.14644
thorax 1.32361 -0.972158 5.10888
lowerneck -16.1135 -9.97003 -5.99404
upperneck 28.7159 -14.7388 9.03628
head 13.5724 -5.65494 2.09795
rclavicle 1.30502e-013 2.62396e-014
rhumerus -33.841 2.77776 -85.0072
rradius 39.5082
rwrist -8.26973
rhand -10.3566 -9.10916
rfingers 7.12502
rthumb 15.6402 -38.4969
lclavicle 1.30502e-013 2.62396e-014
lhumerus -21.8474 -6.20481 75.8943
lradius 37.2996
lwrist 43.4789
lhand -23.688 -6.94417
lfingers 7.12502
lthumb 2.77863 23.0175
rfemur -59.8038 10.3293 13.6072
rtibia 34.4629
rfoot -10.2911 -15.293
rtoes -1.65839
lfemur -20.4489 -4.91121 -27.3456
ltibia 16.6053
lfoot -13.2952 -2.38433
ltoes -15.287
484
root -2.62823 16.1999 -24.9382 -165.751 55.9166 -190.202
lowerback -11.0595 -3.48459 -13.7532
upperback -5.09389 -2.71879 -2.1043
thorax 1.32457 -0.990994 5.13892
lowerneck -15.9996 -9.98396 -6.01373
upperneck 28.673 -14.7155 8.91652
head 13.5162 -5.67092 2.06324
rclavicle -7.67309e-014 4.92986e-014
rhumerus -33.9651 3.09855 -85.2034
rradius 39.3503
rwrist -8.24923
rhand -10.0597 -9.09582
rfingers 7.12502
rthumb 15.9262 -38.461
lclavicle -7.67309e-014 4.92986e-014
lhumerus -22.1725 -6.43567 76.1463
lradius 37.1524
lwrist 43.2277
lhand -23.6033 -7.0227
lfingers 7.12502
lthumb 2.86052 22.9379
rfemur -59.8768 10.7121 13.0172
rtibia 33.7241
rfoot -10.6939 -16.8343
rtoes -0.569063
lfemur -19.3148 -4.84867 -27.5219
ltibia 15.3458
lfoot -12.9246 -2.49858
ltoes -15.7106
